<svg width="1054" height="418" viewBox="0 0 1054 418" fill="none" xmlns="http://www.w3.org/2000/svg">
<rect width="1054" height="418" fill="white"/>
<path d="M78.6612 338.276C78.5476 337.13 78.0599 336.24 77.1982 335.605C76.3364 334.971 75.1669 334.653 73.6896 334.653C72.6858 334.653 71.8383 334.795 71.147 335.08C70.4557 335.354 69.9254 335.738 69.5561 336.23C69.1963 336.723 69.0163 337.281 69.0163 337.906C68.9974 338.427 69.1063 338.882 69.343 339.27C69.5893 339.658 69.9254 339.994 70.3516 340.278C70.7777 340.553 71.2701 340.795 71.8288 341.003C72.3875 341.202 72.9841 341.372 73.6186 341.514L76.2322 342.139C77.5012 342.423 78.666 342.802 79.7266 343.276C80.7872 343.749 81.7057 344.331 82.4822 345.023C83.2588 345.714 83.8601 346.528 84.2862 347.466C84.7218 348.403 84.9444 349.478 84.9538 350.69C84.9444 352.471 84.4898 354.014 83.5902 355.321C82.7 356.618 81.4122 357.627 79.7266 358.347C78.0504 359.057 76.0286 359.412 73.6612 359.412C71.3127 359.412 69.2673 359.052 67.5249 358.332C65.7919 357.613 64.4377 356.547 63.4624 355.136C62.4964 353.716 61.9898 351.959 61.9425 349.866H67.8942C67.9605 350.842 68.2398 351.656 68.7322 352.31C69.2341 352.954 69.9018 353.441 70.7351 353.773C71.5779 354.095 72.5296 354.256 73.5902 354.256C74.6319 354.256 75.5362 354.104 76.3033 353.801C77.0798 353.498 77.6811 353.077 78.1072 352.537C78.5334 351.997 78.7464 351.377 78.7464 350.676C78.7464 350.023 78.5523 349.473 78.1641 349.028C77.7853 348.583 77.2266 348.205 76.4879 347.892C75.7588 347.58 74.8639 347.295 73.8033 347.04L70.6357 346.244C68.183 345.648 66.2464 344.715 64.826 343.446C63.4055 342.177 62.7 340.468 62.7095 338.318C62.7 336.557 63.1688 335.018 64.1158 333.702C65.0722 332.385 66.3838 331.358 68.0504 330.619C69.7171 329.881 71.611 329.511 73.7322 329.511C75.8913 329.511 77.7758 329.881 79.3857 330.619C81.005 331.358 82.2644 332.385 83.1641 333.702C84.0637 335.018 84.5277 336.543 84.5561 338.276H78.6612ZM88.9773 367.182V337.182H94.9432V340.847H95.2131C95.4782 340.259 95.8617 339.663 96.3636 339.057C96.875 338.441 97.5379 337.93 98.3523 337.523C99.1761 337.106 100.199 336.898 101.42 336.898C103.011 336.898 104.479 337.314 105.824 338.148C107.169 338.972 108.243 340.217 109.048 341.884C109.853 343.541 110.256 345.619 110.256 348.119C110.256 350.553 109.863 352.608 109.077 354.284C108.3 355.951 107.24 357.215 105.895 358.077C104.56 358.929 103.063 359.355 101.406 359.355C100.232 359.355 99.233 359.161 98.4091 358.773C97.5947 358.384 96.9271 357.897 96.4062 357.31C95.8854 356.713 95.4877 356.112 95.2131 355.506H95.0284V367.182H88.9773ZM94.9006 348.091C94.9006 349.388 95.0805 350.52 95.4403 351.486C95.8002 352.452 96.321 353.205 97.0028 353.744C97.6847 354.275 98.5133 354.54 99.4886 354.54C100.473 354.54 101.307 354.27 101.989 353.73C102.67 353.181 103.187 352.423 103.537 351.457C103.897 350.482 104.077 349.36 104.077 348.091C104.077 346.831 103.902 345.723 103.551 344.767C103.201 343.811 102.685 343.062 102.003 342.523C101.321 341.983 100.483 341.713 99.4886 341.713C98.5038 341.713 97.6705 341.973 96.9886 342.494C96.3163 343.015 95.8002 343.754 95.4403 344.71C95.0805 345.667 94.9006 346.794 94.9006 348.091ZM114.29 359V337.182H120.156V340.989H120.384C120.781 339.634 121.449 338.612 122.386 337.92C123.324 337.22 124.403 336.869 125.625 336.869C125.928 336.869 126.255 336.888 126.605 336.926C126.955 336.964 127.263 337.016 127.528 337.082V342.452C127.244 342.366 126.851 342.291 126.349 342.224C125.848 342.158 125.388 342.125 124.972 342.125C124.081 342.125 123.286 342.319 122.585 342.707C121.894 343.086 121.345 343.616 120.938 344.298C120.54 344.98 120.341 345.766 120.341 346.656V359H114.29ZM130.657 359V337.182H136.708V359H130.657ZM133.697 334.369C132.797 334.369 132.025 334.071 131.381 333.474C130.747 332.868 130.43 332.144 130.43 331.301C130.43 330.468 130.747 329.753 131.381 329.156C132.025 328.55 132.797 328.247 133.697 328.247C134.596 328.247 135.363 328.55 135.998 329.156C136.642 329.753 136.964 330.468 136.964 331.301C136.964 332.144 136.642 332.868 135.998 333.474C135.363 334.071 134.596 334.369 133.697 334.369ZM147.607 346.386V359H141.555V337.182H147.322V341.031H147.578C148.061 339.762 148.871 338.759 150.007 338.02C151.143 337.272 152.521 336.898 154.141 336.898C155.656 336.898 156.977 337.229 158.104 337.892C159.231 338.555 160.107 339.502 160.732 340.733C161.357 341.955 161.669 343.413 161.669 345.108V359H155.618V346.188C155.627 344.852 155.286 343.811 154.595 343.062C153.904 342.305 152.952 341.926 151.74 341.926C150.926 341.926 150.206 342.101 149.581 342.452C148.965 342.802 148.482 343.313 148.132 343.986C147.791 344.649 147.616 345.449 147.607 346.386ZM176.268 367.636C174.308 367.636 172.627 367.366 171.225 366.827C169.833 366.296 168.725 365.572 167.901 364.653C167.077 363.735 166.542 362.703 166.296 361.557L171.893 360.804C172.063 361.24 172.333 361.647 172.702 362.026C173.072 362.404 173.559 362.707 174.165 362.935C174.781 363.171 175.529 363.29 176.41 363.29C177.726 363.29 178.81 362.968 179.663 362.324C180.524 361.689 180.955 360.624 180.955 359.128V355.136H180.7C180.434 355.742 180.037 356.315 179.506 356.855C178.976 357.395 178.294 357.835 177.461 358.176C176.628 358.517 175.633 358.688 174.478 358.688C172.84 358.688 171.348 358.309 170.004 357.551C168.668 356.784 167.603 355.615 166.808 354.043C166.022 352.461 165.629 350.463 165.629 348.048C165.629 345.577 166.031 343.512 166.836 341.855C167.641 340.198 168.711 338.957 170.046 338.134C171.391 337.31 172.863 336.898 174.464 336.898C175.685 336.898 176.708 337.106 177.532 337.523C178.356 337.93 179.019 338.441 179.521 339.057C180.032 339.663 180.425 340.259 180.7 340.847H180.927V337.182H186.935V359.213C186.935 361.069 186.481 362.622 185.572 363.872C184.663 365.122 183.403 366.06 181.793 366.685C180.193 367.319 178.351 367.636 176.268 367.636ZM176.396 354.142C177.371 354.142 178.195 353.901 178.867 353.418C179.549 352.925 180.07 352.224 180.43 351.315C180.799 350.397 180.984 349.298 180.984 348.02C180.984 346.741 180.804 345.634 180.444 344.696C180.084 343.749 179.563 343.015 178.881 342.494C178.2 341.973 177.371 341.713 176.396 341.713C175.401 341.713 174.563 341.983 173.881 342.523C173.2 343.053 172.683 343.792 172.333 344.739C171.983 345.686 171.808 346.779 171.808 348.02C171.808 349.279 171.983 350.368 172.333 351.287C172.693 352.196 173.209 352.902 173.881 353.403C174.563 353.896 175.401 354.142 176.396 354.142ZM201.122 359V329.909H212.77C214.91 329.909 216.695 330.226 218.125 330.861C219.555 331.495 220.63 332.376 221.349 333.503C222.069 334.62 222.429 335.908 222.429 337.366C222.429 338.503 222.202 339.502 221.747 340.364C221.293 341.216 220.668 341.917 219.872 342.466C219.086 343.006 218.187 343.389 217.173 343.616V343.901C218.281 343.948 219.318 344.26 220.284 344.838C221.259 345.416 222.05 346.225 222.656 347.267C223.262 348.299 223.565 349.53 223.565 350.96C223.565 352.504 223.182 353.882 222.415 355.094C221.657 356.296 220.535 357.248 219.048 357.949C217.562 358.65 215.729 359 213.551 359H201.122ZM207.273 353.972H212.287C214.001 353.972 215.251 353.645 216.037 352.991C216.823 352.329 217.216 351.448 217.216 350.349C217.216 349.545 217.022 348.834 216.634 348.219C216.245 347.603 215.691 347.12 214.972 346.77C214.261 346.42 213.414 346.244 212.429 346.244H207.273V353.972ZM207.273 342.082H211.832C212.675 342.082 213.423 341.936 214.077 341.642C214.74 341.339 215.26 340.913 215.639 340.364C216.027 339.814 216.222 339.156 216.222 338.389C216.222 337.338 215.848 336.491 215.099 335.847C214.361 335.203 213.31 334.881 211.946 334.881H207.273V342.082ZM237.312 359.426C235.105 359.426 233.197 358.957 231.587 358.02C229.987 357.073 228.751 355.757 227.88 354.071C227.009 352.376 226.573 350.411 226.573 348.176C226.573 345.922 227.009 343.953 227.88 342.267C228.751 340.572 229.987 339.256 231.587 338.318C233.197 337.371 235.105 336.898 237.312 336.898C239.518 336.898 241.422 337.371 243.022 338.318C244.632 339.256 245.872 340.572 246.744 342.267C247.615 343.953 248.05 345.922 248.05 348.176C248.05 350.411 247.615 352.376 246.744 354.071C245.872 355.757 244.632 357.073 243.022 358.02C241.422 358.957 239.518 359.426 237.312 359.426ZM237.34 354.739C238.344 354.739 239.182 354.455 239.854 353.886C240.527 353.309 241.033 352.523 241.374 351.528C241.725 350.534 241.9 349.402 241.9 348.134C241.9 346.865 241.725 345.733 241.374 344.739C241.033 343.744 240.527 342.958 239.854 342.381C239.182 341.803 238.344 341.514 237.34 341.514C236.327 341.514 235.475 341.803 234.783 342.381C234.102 342.958 233.585 343.744 233.235 344.739C232.894 345.733 232.724 346.865 232.724 348.134C232.724 349.402 232.894 350.534 233.235 351.528C233.585 352.523 234.102 353.309 234.783 353.886C235.475 354.455 236.327 354.739 237.34 354.739ZM261.843 359.426C259.637 359.426 257.728 358.957 256.119 358.02C254.518 357.073 253.282 355.757 252.411 354.071C251.54 352.376 251.104 350.411 251.104 348.176C251.104 345.922 251.54 343.953 252.411 342.267C253.282 340.572 254.518 339.256 256.119 338.318C257.728 337.371 259.637 336.898 261.843 336.898C264.049 336.898 265.953 337.371 267.553 338.318C269.163 339.256 270.404 340.572 271.275 342.267C272.146 343.953 272.582 345.922 272.582 348.176C272.582 350.411 272.146 352.376 271.275 354.071C270.404 355.757 269.163 357.073 267.553 358.02C265.953 358.957 264.049 359.426 261.843 359.426ZM261.871 354.739C262.875 354.739 263.713 354.455 264.386 353.886C265.058 353.309 265.565 352.523 265.906 351.528C266.256 350.534 266.431 349.402 266.431 348.134C266.431 346.865 266.256 345.733 265.906 344.739C265.565 343.744 265.058 342.958 264.386 342.381C263.713 341.803 262.875 341.514 261.871 341.514C260.858 341.514 260.006 341.803 259.315 342.381C258.633 342.958 258.117 343.744 257.766 344.739C257.425 345.733 257.255 346.865 257.255 348.134C257.255 349.402 257.425 350.534 257.766 351.528C258.117 352.523 258.633 353.309 259.315 353.886C260.006 354.455 260.858 354.739 261.871 354.739ZM288.121 337.182V341.727H274.982V337.182H288.121ZM277.965 331.955H284.016V352.295C284.016 352.854 284.102 353.29 284.272 353.602C284.442 353.905 284.679 354.118 284.982 354.241C285.295 354.365 285.655 354.426 286.062 354.426C286.346 354.426 286.63 354.402 286.914 354.355C287.198 354.298 287.416 354.256 287.567 354.227L288.519 358.73C288.216 358.825 287.79 358.934 287.241 359.057C286.692 359.189 286.024 359.27 285.238 359.298C283.78 359.355 282.501 359.161 281.403 358.716C280.314 358.271 279.466 357.58 278.86 356.642C278.254 355.705 277.956 354.521 277.965 353.091V331.955Z" fill="#8BC34A"/>
<g clip-path="url(#clip0_201_6)">
<path d="M298.896 173.34C299.324 147.045 293.372 115.777 280.971 79.0901L271.249 50.3209L258.042 77.677C257.335 79.1395 256.529 80.5712 255.686 81.9844C233.991 63.4466 205.841 52.1722 175 52.1722C106.51 52.1722 50.9921 107.427 50.9921 175.592C50.9921 243.757 106.51 299.013 175 299.013C243.49 299.013 299.008 243.757 299.008 175.592C299.008 174.833 298.909 174.099 298.896 173.34Z" fill="#8BC34A"/>
<path d="M270.393 228.404C251.029 254.952 216.753 256.377 184.493 255.816H142.448H130.432C157.887 245.985 174.225 243.646 190.91 234.834C222.334 218.388 253.398 182.405 259.865 144.972C247.898 180.986 211.632 211.927 178.584 224.51C155.94 233.106 115.042 241.449 115.042 241.449L113.387 240.555C85.5469 226.614 84.7036 164.571 135.317 144.54C157.478 135.759 178.677 140.584 202.617 134.709C228.175 128.464 257.738 108.742 269.767 83.0273C283.234 124.169 299.442 188.589 270.393 228.404ZM123.338 264.733C121.59 266.893 118.917 268.158 116.127 268.158C111.024 268.158 106.858 263.98 106.858 258.901C106.858 253.822 111.055 249.645 116.127 249.645C118.242 249.645 120.325 250.373 121.962 251.718C125.93 254.921 126.55 260.783 123.338 264.733Z" fill="white"/>
</g>
<path d="M458.958 359H448.646V329.909H459.043C461.969 329.909 464.488 330.491 466.6 331.656C468.712 332.812 470.336 334.473 471.472 336.642C472.618 338.811 473.191 341.405 473.191 344.426C473.191 347.456 472.618 350.061 471.472 352.239C470.336 354.417 468.702 356.088 466.572 357.253C464.451 358.418 461.913 359 458.958 359ZM454.796 353.73H458.702C460.521 353.73 462.05 353.408 463.29 352.764C464.54 352.111 465.478 351.102 466.103 349.739C466.737 348.366 467.055 346.595 467.055 344.426C467.055 342.277 466.737 340.52 466.103 339.156C465.478 337.793 464.545 336.789 463.305 336.145C462.064 335.501 460.535 335.179 458.717 335.179H454.796V353.73ZM487.491 359.426C485.285 359.426 483.377 358.957 481.767 358.02C480.167 357.073 478.931 355.757 478.06 354.071C477.188 352.376 476.753 350.411 476.753 348.176C476.753 345.922 477.188 343.953 478.06 342.267C478.931 340.572 480.167 339.256 481.767 338.318C483.377 337.371 485.285 336.898 487.491 336.898C489.698 336.898 491.601 337.371 493.202 338.318C494.812 339.256 496.052 340.572 496.923 342.267C497.795 343.953 498.23 345.922 498.23 348.176C498.23 350.411 497.795 352.376 496.923 354.071C496.052 355.757 494.812 357.073 493.202 358.02C491.601 358.957 489.698 359.426 487.491 359.426ZM487.52 354.739C488.524 354.739 489.362 354.455 490.034 353.886C490.706 353.309 491.213 352.523 491.554 351.528C491.904 350.534 492.08 349.402 492.08 348.134C492.08 346.865 491.904 345.733 491.554 344.739C491.213 343.744 490.706 342.958 490.034 342.381C489.362 341.803 488.524 341.514 487.52 341.514C486.507 341.514 485.654 341.803 484.963 342.381C484.281 342.958 483.765 343.744 483.415 344.739C483.074 345.733 482.903 346.865 482.903 348.134C482.903 349.402 483.074 350.534 483.415 351.528C483.765 352.523 484.281 353.309 484.963 353.886C485.654 354.455 486.507 354.739 487.52 354.739ZM512.023 359.426C509.788 359.426 507.866 358.953 506.256 358.006C504.655 357.049 503.424 355.723 502.562 354.028C501.71 352.333 501.284 350.383 501.284 348.176C501.284 345.941 501.715 343.981 502.577 342.295C503.448 340.6 504.684 339.279 506.284 338.332C507.884 337.376 509.788 336.898 511.994 336.898C513.898 336.898 515.564 337.243 516.994 337.935C518.424 338.626 519.556 339.597 520.389 340.847C521.223 342.097 521.682 343.564 521.767 345.25H516.057C515.896 344.161 515.47 343.285 514.778 342.622C514.097 341.95 513.202 341.614 512.094 341.614C511.156 341.614 510.337 341.869 509.636 342.381C508.945 342.883 508.405 343.616 508.017 344.582C507.629 345.548 507.435 346.718 507.435 348.091C507.435 349.483 507.624 350.667 508.003 351.642C508.391 352.617 508.936 353.361 509.636 353.872C510.337 354.384 511.156 354.639 512.094 354.639C512.785 354.639 513.405 354.497 513.955 354.213C514.513 353.929 514.973 353.517 515.332 352.977C515.702 352.428 515.943 351.77 516.057 351.003H521.767C521.672 352.67 521.218 354.137 520.403 355.406C519.598 356.666 518.486 357.651 517.065 358.361C515.645 359.071 513.964 359.426 512.023 359.426ZM531.124 352.722L531.138 345.463H532.019L539.008 337.182H545.954L536.565 348.148H535.13L531.124 352.722ZM525.641 359V329.909H531.692V359H525.641ZM539.278 359L532.857 349.497L536.891 345.222L546.366 359H539.278ZM557.967 359.426C555.723 359.426 553.791 358.972 552.172 358.062C550.562 357.144 549.321 355.847 548.45 354.17C547.579 352.485 547.143 350.491 547.143 348.19C547.143 345.946 547.579 343.976 548.45 342.281C549.321 340.586 550.548 339.265 552.129 338.318C553.72 337.371 555.586 336.898 557.726 336.898C559.165 336.898 560.505 337.13 561.746 337.594C562.996 338.048 564.085 338.735 565.013 339.653C565.95 340.572 566.679 341.727 567.2 343.119C567.721 344.502 567.982 346.121 567.982 347.977V349.639H549.558V345.889H562.286C562.286 345.018 562.096 344.246 561.717 343.574C561.339 342.902 560.813 342.376 560.141 341.997C559.478 341.609 558.706 341.415 557.825 341.415C556.907 341.415 556.092 341.628 555.382 342.054C554.681 342.471 554.132 343.034 553.734 343.744C553.337 344.445 553.133 345.226 553.124 346.088V349.653C553.124 350.733 553.322 351.666 553.72 352.452C554.127 353.238 554.7 353.844 555.439 354.27C556.178 354.696 557.054 354.909 558.067 354.909C558.739 354.909 559.355 354.814 559.913 354.625C560.472 354.436 560.95 354.152 561.348 353.773C561.746 353.394 562.049 352.93 562.257 352.381L567.854 352.75C567.57 354.095 566.987 355.269 566.107 356.273C565.235 357.267 564.108 358.044 562.726 358.602C561.353 359.152 559.767 359.426 557.967 359.426ZM571.93 359V337.182H577.797V340.989H578.024C578.422 339.634 579.089 338.612 580.027 337.92C580.964 337.22 582.044 336.869 583.266 336.869C583.569 336.869 583.895 336.888 584.246 336.926C584.596 336.964 584.904 337.016 585.169 337.082V342.452C584.885 342.366 584.492 342.291 583.99 342.224C583.488 342.158 583.029 342.125 582.612 342.125C581.722 342.125 580.927 342.319 580.226 342.707C579.535 343.086 578.985 343.616 578.578 344.298C578.18 344.98 577.982 345.766 577.982 346.656V359H571.93Z" fill="#03A9F4"/>
<path d="M654.14 139.172C657.253 125.358 653.408 109.076 634.236 91.4013C603.073 119.61 611.983 148.941 622.293 163.057C622.293 163.057 620.971 171.019 590.446 171.019C559.92 171.019 351.592 171.019 351.592 171.019C351.592 171.019 336.998 298.408 478.981 298.408C603.129 298.408 638.002 202.842 644.809 178.376C647.627 178.758 650.788 179.005 654.14 178.981C671.234 178.846 693.392 169.658 701.911 135.318C679.315 127.492 664.801 131.035 654.14 139.172Z" fill="#03A9F4"/>
<path d="M352.906 202.866C358.758 240.597 383.304 298.408 478.981 298.408C575.995 298.408 618.495 240.048 635.685 202.866H352.906Z" fill="#0288D1"/>
<path d="M493.408 297.914C486.083 295.35 453.025 289.236 447.134 242.675C413.623 257.508 383.933 253.623 370.868 250.701C388.081 276.409 419.992 298.408 478.981 298.408C483.941 298.408 488.726 298.217 493.408 297.914Z" fill="#81D4FA"/>
<path d="M478.981 218.79C474.758 218.79 470.707 220.467 467.721 223.454C464.735 226.44 463.057 230.49 463.057 234.713C463.057 238.937 464.735 242.987 467.721 245.973C470.707 248.959 474.758 250.637 478.981 250.637C483.204 250.637 487.254 248.959 490.241 245.973C493.227 242.987 494.904 238.937 494.904 234.713C494.904 230.49 493.227 226.44 490.241 223.454C487.254 220.467 483.204 218.79 478.981 218.79Z" fill="white"/>
<path d="M454.411 247.428C456.194 251.449 454.57 256.68 450.35 257.922C424.068 265.669 401.417 266.696 384.291 266.696C379.164 261.768 374.785 256.513 371.107 251.067C391.688 251.067 424.53 250.111 443.909 243.376C448.065 241.927 452.627 243.392 454.411 247.428ZM351.592 194.904C351.592 194.904 366.521 195.9 375.478 186.943C390.406 200.382 422.771 195.605 431.21 186.943C439.674 200.382 486.449 197.89 494.904 186.943C504.857 198.392 547.651 200.876 558.599 186.943C562.412 198.575 612.89 201.863 622.293 186.943C630.74 195.605 662.603 202.373 680.502 186.943C684.992 196.401 701.911 194.904 701.911 194.904V202.866H351.592M471.019 234.713C471.019 239.108 474.586 242.675 478.981 242.675C483.376 242.675 486.943 239.108 486.943 234.713C486.943 230.318 483.376 226.752 478.981 226.752C474.586 226.752 471.019 230.318 471.019 234.713Z" fill="#37474F"/>
<path d="M423.248 171.019H383.439V131.21H423.248V171.019ZM502.866 131.21H463.057V171.019H502.866V131.21ZM582.484 131.21H542.675V171.019H582.484V131.21ZM463.057 91.4013H423.248V131.21H463.057V91.4013ZM542.675 91.4013H502.866V131.21H542.675V91.4013Z" fill="#01579B"/>
<path d="M463.057 171.019H423.248V131.21H463.057V171.019ZM542.675 131.21H502.866V171.019H542.675V131.21ZM542.675 51.5923H502.866V91.4013H542.675V51.5923ZM502.866 91.4013H463.057V131.21H502.866V91.4013Z" fill="#0288D1"/>
<path d="M782.97 359V329.909H794.447C796.644 329.909 798.519 330.302 800.072 331.088C801.635 331.865 802.823 332.968 803.637 334.398C804.461 335.818 804.873 337.49 804.873 339.412C804.873 341.344 804.457 343.006 803.623 344.398C802.79 345.78 801.583 346.841 800.001 347.58C798.429 348.318 796.526 348.688 794.291 348.688H786.606V343.744H793.297C794.471 343.744 795.446 343.583 796.223 343.261C796.999 342.939 797.577 342.456 797.956 341.812C798.344 341.169 798.538 340.368 798.538 339.412C798.538 338.446 798.344 337.632 797.956 336.969C797.577 336.306 796.994 335.804 796.208 335.463C795.432 335.113 794.452 334.938 793.268 334.938H789.12V359H782.97ZM798.68 345.761L805.91 359H799.12L792.047 345.761H798.68ZM815.328 359.412C813.936 359.412 812.695 359.17 811.606 358.688C810.517 358.195 809.655 357.471 809.021 356.514C808.396 355.548 808.083 354.346 808.083 352.906C808.083 351.694 808.306 350.676 808.751 349.852C809.196 349.028 809.802 348.366 810.569 347.864C811.336 347.362 812.208 346.983 813.183 346.727C814.168 346.472 815.2 346.292 816.279 346.188C817.548 346.055 818.571 345.932 819.348 345.818C820.124 345.695 820.688 345.515 821.038 345.278C821.388 345.042 821.564 344.691 821.564 344.227V344.142C821.564 343.242 821.279 342.546 820.711 342.054C820.153 341.562 819.357 341.315 818.325 341.315C817.236 341.315 816.369 341.557 815.725 342.04C815.082 342.513 814.655 343.11 814.447 343.83L808.85 343.375C809.135 342.049 809.693 340.903 810.527 339.938C811.36 338.962 812.435 338.214 813.751 337.693C815.077 337.163 816.611 336.898 818.353 336.898C819.565 336.898 820.725 337.04 821.833 337.324C822.951 337.608 823.94 338.048 824.802 338.645C825.673 339.241 826.36 340.009 826.862 340.946C827.364 341.874 827.615 342.987 827.615 344.284V359H821.876V355.974H821.706C821.355 356.656 820.886 357.258 820.299 357.778C819.712 358.29 819.007 358.692 818.183 358.986C817.359 359.27 816.407 359.412 815.328 359.412ZM817.061 355.236C817.951 355.236 818.737 355.061 819.419 354.71C820.1 354.35 820.636 353.867 821.024 353.261C821.412 352.655 821.606 351.969 821.606 351.202V348.886C821.417 349.009 821.156 349.123 820.825 349.227C820.503 349.322 820.138 349.412 819.731 349.497C819.324 349.573 818.917 349.644 818.51 349.71C818.102 349.767 817.733 349.819 817.402 349.866C816.691 349.971 816.071 350.136 815.541 350.364C815.011 350.591 814.599 350.899 814.305 351.287C814.011 351.666 813.865 352.139 813.865 352.707C813.865 353.531 814.163 354.161 814.76 354.597C815.366 355.023 816.133 355.236 817.061 355.236ZM832.423 359V329.909H838.474V340.847H838.659C838.924 340.259 839.307 339.663 839.809 339.057C840.321 338.441 840.984 337.93 841.798 337.523C842.622 337.106 843.645 336.898 844.866 336.898C846.457 336.898 847.925 337.314 849.27 338.148C850.614 338.972 851.689 340.217 852.494 341.884C853.299 343.541 853.701 345.619 853.701 348.119C853.701 350.553 853.308 352.608 852.522 354.284C851.746 355.951 850.685 357.215 849.341 358.077C848.005 358.929 846.509 359.355 844.852 359.355C843.678 359.355 842.679 359.161 841.855 358.773C841.04 358.384 840.373 357.897 839.852 357.31C839.331 356.713 838.933 356.112 838.659 355.506H838.389V359H832.423ZM838.346 348.091C838.346 349.388 838.526 350.52 838.886 351.486C839.246 352.452 839.767 353.205 840.449 353.744C841.13 354.275 841.959 354.54 842.934 354.54C843.919 354.54 844.752 354.27 845.434 353.73C846.116 353.181 846.632 352.423 846.983 351.457C847.342 350.482 847.522 349.36 847.522 348.091C847.522 346.831 847.347 345.723 846.997 344.767C846.646 343.811 846.13 343.062 845.449 342.523C844.767 341.983 843.929 341.713 842.934 341.713C841.949 341.713 841.116 341.973 840.434 342.494C839.762 343.015 839.246 343.754 838.886 344.71C838.526 345.667 838.346 346.794 838.346 348.091ZM857.853 359V329.909H863.904V340.847H864.088C864.354 340.259 864.737 339.663 865.239 339.057C865.75 338.441 866.413 337.93 867.228 337.523C868.051 337.106 869.074 336.898 870.296 336.898C871.887 336.898 873.355 337.314 874.699 338.148C876.044 338.972 877.119 340.217 877.924 341.884C878.729 343.541 879.131 345.619 879.131 348.119C879.131 350.553 878.738 352.608 877.952 354.284C877.176 355.951 876.115 357.215 874.77 358.077C873.435 358.929 871.939 359.355 870.282 359.355C869.107 359.355 868.108 359.161 867.284 358.773C866.47 358.384 865.802 357.897 865.282 357.31C864.761 356.713 864.363 356.112 864.088 355.506H863.819V359H857.853ZM863.776 348.091C863.776 349.388 863.956 350.52 864.316 351.486C864.676 352.452 865.196 353.205 865.878 353.744C866.56 354.275 867.389 354.54 868.364 354.54C869.349 354.54 870.182 354.27 870.864 353.73C871.546 353.181 872.062 352.423 872.412 351.457C872.772 350.482 872.952 349.36 872.952 348.091C872.952 346.831 872.777 345.723 872.426 344.767C872.076 343.811 871.56 343.062 870.878 342.523C870.196 341.983 869.358 341.713 868.364 341.713C867.379 341.713 866.546 341.973 865.864 342.494C865.192 343.015 864.676 343.754 864.316 344.71C863.956 345.667 863.776 346.794 863.776 348.091ZM883.169 359V337.182H889.22V359H883.169ZM886.208 334.369C885.309 334.369 884.537 334.071 883.893 333.474C883.259 332.868 882.941 332.144 882.941 331.301C882.941 330.468 883.259 329.753 883.893 329.156C884.537 328.55 885.309 328.247 886.208 328.247C887.108 328.247 887.875 328.55 888.51 329.156C889.154 329.753 889.475 330.468 889.475 331.301C889.475 332.144 889.154 332.868 888.51 333.474C887.875 334.071 887.108 334.369 886.208 334.369ZM905.672 337.182V341.727H892.533V337.182H905.672ZM895.516 331.955H901.567V352.295C901.567 352.854 901.652 353.29 901.823 353.602C901.993 353.905 902.23 354.118 902.533 354.241C902.846 354.365 903.205 354.426 903.613 354.426C903.897 354.426 904.181 354.402 904.465 354.355C904.749 354.298 904.967 354.256 905.118 354.227L906.07 358.73C905.767 358.825 905.341 358.934 904.792 359.057C904.242 359.189 903.575 359.27 902.789 359.298C901.33 359.355 900.052 359.161 898.953 358.716C897.864 358.271 897.017 357.58 896.411 356.642C895.805 355.705 895.507 354.521 895.516 353.091V331.955ZM910.196 329.909H917.782L925.793 349.455H926.134L934.145 329.909H941.73V359H935.765V340.065H935.523L927.995 358.858H923.932L916.404 339.994H916.162V359H910.196V329.909ZM957.778 348.886H963.005L965.633 352.267L968.218 355.278L973.091 361.386H967.352L964 357.267L962.281 354.824L957.778 348.886ZM973.531 344.455C973.531 347.627 972.93 350.326 971.727 352.551C970.534 354.777 968.905 356.476 966.841 357.651C964.786 358.815 962.475 359.398 959.909 359.398C957.324 359.398 955.003 358.811 952.949 357.636C950.894 356.462 949.27 354.762 948.076 352.537C946.883 350.312 946.287 347.617 946.287 344.455C946.287 341.282 946.883 338.583 948.076 336.358C949.27 334.133 950.894 332.437 952.949 331.273C955.003 330.098 957.324 329.511 959.909 329.511C962.475 329.511 964.786 330.098 966.841 331.273C968.905 332.437 970.534 334.133 971.727 336.358C972.93 338.583 973.531 341.282 973.531 344.455ZM967.295 344.455C967.295 342.4 966.987 340.667 966.372 339.256C965.766 337.845 964.909 336.775 963.801 336.045C962.693 335.316 961.395 334.952 959.909 334.952C958.422 334.952 957.125 335.316 956.017 336.045C954.909 336.775 954.047 337.845 953.431 339.256C952.825 340.667 952.522 342.4 952.522 344.455C952.522 346.509 952.825 348.242 953.431 349.653C954.047 351.064 954.909 352.134 956.017 352.864C957.125 353.593 958.422 353.957 959.909 353.957C961.395 353.957 962.693 353.593 963.801 352.864C964.909 352.134 965.766 351.064 966.372 349.653C966.987 348.242 967.295 346.509 967.295 344.455Z" fill="#FF6600"/>
<g clip-path="url(#clip1_201_6)">
<path d="M993.527 149.647H913.847C911.194 149.664 908.645 148.618 906.769 146.742C904.893 144.866 903.847 142.317 903.864 139.664V59.9838C903.864 57.3417 902.81 54.8088 900.936 52.9464C899.062 51.0841 896.522 50.0462 893.88 50.0628H864.055C861.413 50.0462 858.873 51.0841 856.999 52.9464C855.125 54.8088 854.071 57.3417 854.071 59.9838V139.664C854.088 142.317 853.042 144.866 851.166 146.742C849.29 148.618 846.741 149.664 844.088 149.647H814.262C811.61 149.664 809.061 148.618 807.185 146.742C805.309 144.866 804.262 142.317 804.279 139.664V59.9838C804.296 57.3309 803.249 54.7819 801.373 52.906C799.498 51.0301 796.948 49.9837 794.296 50.0002H764.408C761.766 50.0002 759.233 51.0541 757.37 52.9282C755.508 54.8023 754.47 57.3418 754.487 59.9838V289.103C754.47 291.756 755.516 294.305 757.392 296.181C759.268 298.057 761.817 299.103 764.47 299.087H993.527C996.18 299.103 998.729 298.057 1000.6 296.181C1002.48 294.305 1003.53 291.756 1003.51 289.103V159.818C1003.58 157.133 1002.55 154.535 1000.67 152.618C998.791 150.702 996.213 149.63 993.527 149.647ZM953.469 234.257C953.485 238.223 951.921 242.032 949.123 244.842C946.324 247.652 942.522 249.232 938.556 249.232H918.589C914.623 249.232 910.821 247.652 908.022 244.842C905.224 242.032 903.66 238.223 903.676 234.257V214.352C903.66 210.386 905.224 206.577 908.022 203.767C910.821 200.957 914.623 199.377 918.589 199.377H938.556C942.522 199.377 946.324 200.957 949.123 203.767C951.921 206.577 953.485 210.386 953.469 214.352V234.257Z" fill="#FF6600"/>
</g>
<defs>
<clipPath id="clip0_201_6">
<rect width="250" height="250" fill="white" transform="translate(50 50)"/>
</clipPath>
<clipPath id="clip1_201_6">
<rect width="250" height="250" fill="white" transform="translate(754 50)"/>
</clipPath>
</defs>
</svg>
